<?xml version="1.0" standalone="no"?>
<!DOCTYPE svg PUBLIC "-//W3C//DTD SVG 20010904//EN"
 "http://www.w3.org/TR/2001/REC-SVG-20010904/DTD/svg10.dtd">
<svg version="1.0" xmlns="http://www.w3.org/2000/svg"
 width="260.000000pt" height="260.000000pt" viewBox="0 0 260.000000 260.000000"
 preserveAspectRatio="xMidYMid meet">
<metadata>
Created by potrace 1.11, written by Peter Selinger 2001-2013
</metadata>
<g transform="translate(0.000000,260.000000) scale(0.100000,-0.100000)"
fill="#000000" stroke="none">
<path d="M1995 2463 c-49 -14 -91 -26 -92 -27 -2 -2 -6 -42 -18 -158 -5 -49
-9 -81 -20 -178 -2 -19 -9 -82 -16 -140 -6 -58 -12 -114 -14 -125 -2 -11 -4
-33 -4 -48 -1 -16 -5 -26 -9 -23 -5 3 -97 126 -206 274 l-198 269 -97 -25
c-53 -14 -98 -26 -99 -28 -4 -2 211 -815 224 -848 8 -20 3 -20 84 4 l66 20
-72 270 c-40 149 -75 283 -79 298 -6 24 39 -29 105 -125 8 -12 73 -102 144
-200 71 -98 131 -179 132 -181 3 -5 116 26 124 35 5 4 11 44 15 88 4 44 8 94
10 110 2 17 6 57 10 90 7 65 14 130 20 185 2 19 7 67 10 105 4 39 8 71 9 72 2
2 24 -77 50 -175 74 -277 110 -407 112 -411 6 -8 144 32 144 42 0 7 -23 97
-51 202 -28 104 -79 293 -113 419 -34 127 -66 231 -72 232 -5 1 -49 -9 -99
-23z"/>
<path d="M419 2316 c-78 -32 -115 -60 -164 -127 -126 -171 -99 -395 69 -560
l59 -59 -21 -23 -22 -23 24 -23 25 -23 24 26 25 26 49 -24 c130 -66 262 -59
379 19 89 59 164 174 164 252 l0 27 28 -26 27 -26 43 38 c23 21 42 42 42 47 0
4 -45 53 -100 108 -55 55 -100 105 -100 112 0 6 10 19 22 27 21 15 21 16 2 38
-10 13 -20 25 -21 27 -2 3 -16 -8 -31 -22 l-28 -27 -29 30 c-16 16 -33 30 -38
30 -5 0 -63 -54 -130 -120 l-120 -120 35 -34 35 -34 -82 -82 c-82 -81 -83 -82
-107 -66 -14 9 -42 37 -63 62 -87 104 -114 203 -78 285 63 141 184 182 302
103 l34 -23 48 46 c27 26 49 52 49 59 0 7 -15 25 -34 39 -88 67 -215 83 -317
41z m480 -437 c27 -83 -33 -194 -132 -246 -40 -21 -119 -21 -171 1 l-38 16
152 151 c167 167 161 165 189 78z"/>
<path d="M2360 1544 c-197 -56 -236 -66 -250 -69 -39 -8 -734 -196 -738 -200
-9 -8 16 -60 28 -57 94 22 1067 286 1073 291 9 9 -9 62 -20 60 -5 -1 -46 -12
-93 -25z"/>
<path d="M1739 1258 c-14 -44 -23 -120 -15 -127 6 -5 70 -19 141 -31 72 -12
132 -23 135 -25 3 -1 29 -6 59 -9 85 -10 88 -16 34 -66 -55 -50 -316 -297
-439 -415 -68 -65 -85 -87 -88 -115 -2 -19 -7 -47 -11 -62 -6 -23 -4 -28 11
-29 11 0 26 -2 35 -4 14 -2 194 -34 284 -50 17 -2 41 -7 55 -10 33 -7 256 -45
262 -45 5 0 21 88 23 119 0 8 -7 15 -15 16 -31 5 -86 15 -115 21 -16 3 -39 7
-50 9 -11 1 -60 10 -110 19 -49 8 -108 18 -130 22 -22 3 -42 7 -44 9 -3 3 68
73 244 239 336 318 322 303 330 352 3 26 9 52 12 59 5 14 -11 21 -71 31 -21 3
-48 8 -60 10 -20 4 -59 11 -191 34 -33 5 -71 12 -85 15 -14 3 -38 8 -55 10
-16 3 -54 10 -84 15 -60 11 -61 11 -62 8z"/>
<path d="M843 1052 c-28 -2 -56 -8 -61 -15 -5 -7 -30 -79 -56 -162 -79 -252
-91 -286 -100 -287 -5 0 -57 94 -117 209 l-107 208 -73 -3 c-40 -2 -75 -5 -77
-7 -5 -5 82 -171 252 -485 23 -41 48 -89 56 -105 19 -37 28 -44 53 -39 11 2
37 4 58 6 l38 2 111 336 c60 185 110 339 110 341 0 5 -16 6 -87 1z"/>
<path d="M949 316 c-2 -2 -47 -7 -99 -10 -52 -4 -111 -9 -130 -11 -19 -2 -66
-6 -105 -10 -222 -19 -289 -26 -293 -30 -2 -2 -1 -18 3 -35 5 -22 11 -30 23
-26 16 4 59 9 214 21 32 3 84 7 115 10 32 3 90 8 128 11 39 3 79 7 90 9 11 1
32 3 46 4 22 1 26 6 27 31 1 27 -9 45 -19 36z"/>
<path d="M1499 298 c0 -2 -3 -15 -5 -31 -5 -30 -1 -33 61 -41 22 -3 50 -7 61
-10 12 -2 37 -7 55 -10 19 -3 122 -21 229 -40 107 -19 211 -37 230 -41 19 -3
47 -8 62 -11 23 -5 28 -1 34 21 4 15 3 30 -2 35 -8 7 -56 17 -199 41 -74 12
-102 17 -255 45 -46 9 -96 18 -110 19 -14 2 -49 9 -79 14 -53 11 -80 13 -82 9z"/>
</g>
</svg>
